<svg xmlns="http://www.w3.org/2000/svg" xmlns:xlink="http://www.w3.org/1999/xlink" viewBox="0 0 41.79 21.81">
  <defs>
    <style>
      .cls-1 {
        fill: none;
      }

      .cls-2 {
        clip-path: url(#clip-path);
      }

      .cls-3 {
        fill: #00663a;
      }
    </style>
    <clipPath id="clip-path" transform="translate(0 0)">
      <rect class="cls-1" width="41.79" height="21.81"/>
    </clipPath>
  </defs>
  <title>Fichier 1</title>
  <g id="Calque_2" data-name="Calque 2">
    <g id="Calque_1-2" data-name="Calque 1">
      <g class="cls-2">
        <path class="cls-3" d="M27.62,20.7l-.56-.6c-.18.19-.24.49-.56.5,0,.17.14.09.25.1.28,0,.58,0,.86,0m-17.47-.1c-.31,0-.37-.31-.55-.5L9,20.7c.28,0,.57,0,.86,0,.11,0,.28.07.25-.1m21.51-1.72h-4a2.08,2.08,0,0,0,4,0m-5.15,0h-4a2.08,2.08,0,0,0,4,0M14.19,20.7h8.28a3.24,3.24,0,0,1-1-1.76l-6.21-.07a3.84,3.84,0,0,1-1.07,1.82m0-1.82h-4a2.08,2.08,0,0,0,4,0M9,18.88H5a2.08,2.08,0,0,0,4,0m30.6-8.38c.06-.09-.36-.6-.45-.71a25.75,25.75,0,0,0-3.7-3.37,13.24,13.24,0,0,0-1.7-1.23,10,10,0,0,0-2.88.06,1.67,1.67,0,0,0-1,.93,15.93,15.93,0,0,0-.05,3.33A1.55,1.55,0,0,0,31,10.66c2.53-.09,5.44.28,7.93.05a3.29,3.29,0,0,0,.75-.21m-3,7.37a8.35,8.35,0,0,0,1.16-.35c2.31-.93,3.88-4,2.47-6.22a5.88,5.88,0,0,1-1.4.42,57.41,57.41,0,0,1-7.68,0c-2.62-.24-2.55-3.08-2.37-5.11C29,4.81,30.47,4,32.17,4.24a12.24,12.24,0,0,0-2.22-1.36,17.94,17.94,0,0,0-6.52-2H.56V0H24.34c5.14.41,14,6.33,16.69,10.67a5.33,5.33,0,0,1-1.89,7.26c-2,1.29-4.19.89-6.47,1A3.26,3.26,0,0,1,32,20.45c-.11.13-.31.09-.31.25h6.72c.29.27.11.75.15,1.11H.56V20.7H4.9A3.38,3.38,0,0,1,4,18.88H.56v-1Z" transform="translate(0 0)"/>
        <path class="cls-3" d="M19,9.9h4c.25,0,.88-.81.94-1.08a5.94,5.94,0,0,0-.28-3,2.07,2.07,0,0,0-1-.66H19.19L19,5.3Zm-1,0V5.3l-.15-.15H13.13L13,5.3V9.9Zm-6,0V5.3l-.15-.15H7V9.9ZM6,9.9V5.3l-.15-.15H2.33a1.84,1.84,0,0,0-1.17,1A8.53,8.53,0,0,0,1.17,9c.08.21.68.86.86.86ZM1.95,4.27H23.11A2.62,2.62,0,0,1,25,6.52c.23,2.24,0,4.27-2.68,4.49C16,10.7,9.23,11.42,2.93,11,1.36,10.91.18,10.22.05,8.54S-.1,4.88,1.95,4.27" transform="translate(0 0)"/>
      </g>
    </g>
  </g>
</svg>
